<?xml version="1.0" encoding="UTF-8" standalone="yes"?>
<svg xmlns="http://www.w3.org/2000/svg" width="1280" height="720" viewBox="0 0 1280 720"><rect width="1280" height="720" fill="#F7F6F2"/><text x="80" y="110" fill="#111827" font-size="48" font-family="Arial">老板语言翻译器路线图</text><text x="80" y="156" fill="#4B5563" font-size="24" font-family="Arial">从 MVP 到稳定联调的四步推进</text><rect x="80" y="240" width="250" height="260" rx="28" fill="#FFFFFF" stroke="#D1D5DB"/><text x="120" y="292" fill="#2563EB" font-size="30" font-family="Arial">Step 1</text><text x="120" y="336" fill="#111827" font-size="28" font-family="Arial">极简交互上线</text><text x="120" y="382" fill="#6B7280" font-size="22" font-family="Arial">单页结果流</text><text x="120" y="414" fill="#6B7280" font-size="22" font-family="Arial">推荐回复默认直出</text><text x="120" y="446" fill="#6B7280" font-size="22" font-family="Arial">高级包底部解锁</text><rect x="380" y="240" width="250" height="260" rx="28" fill="#FFFFFF" stroke="#D1D5DB"/><text x="420" y="292" fill="#2563EB" font-size="30" font-family="Arial">Step 2</text><text x="420" y="336" fill="#111827" font-size="28" font-family="Arial">接 MiniMax</text><text x="420" y="382" fill="#6B7280" font-size="22" font-family="Arial">OpenAI 兼容接口</text><text x="420" y="414" fill="#6B7280" font-size="22" font-family="Arial">recommendedTrackId</text><text x="420" y="446" fill="#6B7280" font-size="22" font-family="Arial">JSON 稳定输出</text><rect x="680" y="240" width="250" height="260" rx="28" fill="#FFFFFF" stroke="#D1D5DB"/><text x="720" y="292" fill="#2563EB" font-size="30" font-family="Arial">Step 3</text><text x="720" y="336" fill="#111827" font-size="28" font-family="Arial">接 PaddleOCR</text><text x="720" y="382" fill="#6B7280" font-size="22" font-family="Arial">截图转文本</text><text x="720" y="414" fill="#6B7280" font-size="22" font-family="Arial">adapter 鉴权</text><text x="720" y="446" fill="#6B7280" font-size="22" font-family="Arial">本地 smoke test</text><rect x="980" y="240" width="220" height="260" rx="28" fill="#FFFFFF" stroke="#D1D5DB"/><text x="1016" y="292" fill="#2563EB" font-size="30" font-family="Arial">Step 4</text><text x="1016" y="336" fill="#111827" font-size="28" font-family="Arial">微信云联调</text><text x="1016" y="382" fill="#6B7280" font-size="22" font-family="Arial">部署云函数</text><text x="1016" y="414" fill="#6B7280" font-size="22" font-family="Arial">配置环境变量</text><text x="1016" y="446" fill="#6B7280" font-size="22" font-family="Arial">跑完整链路</text></svg>
